<svg xmlns:xlink="http://www.w3.org/1999/xlink" xmlns="http://www.w3.org/2000/svg" viewBox="0 0 410 142" preserveAspectRatio="xMidYMid meet" class="css-8xnowg" id="heccgghb" width="556"  height="193" ><defs id="SvgjsDefs3814"><linearGradient id="SvgjsLinearGradient3821"><stop id="SvgjsStop3822" stop-color="#fbb040" offset="0"></stop><stop id="SvgjsStop3823" stop-color="#f9ed32" offset="1"></stop></linearGradient><linearGradient id="SvgjsLinearGradient3821"><stop id="SvgjsStop3822" stop-color="#fbb040" offset="0"></stop><stop id="SvgjsStop3823" stop-color="#f9ed32" offset="1"></stop></linearGradient><linearGradient id="SvgjsLinearGradient3821"><stop id="SvgjsStop3822" stop-color="#fbb040" offset="0"></stop><stop id="SvgjsStop3823" stop-color="#f9ed32" offset="1"></stop></linearGradient></defs><g id="SvgjsG3815" featurekey="rootContainer" transform="matrix(1,0,0,1,0,0)" fill="#FFFFFF"><rect xmlns="http://www.w3.org/2000/svg" width="410" height="142" rx="10" ry="10" fill="#FFFFFF"></rect></g><g id="SvgjsG3816" featurekey="G09qjj-0" transform="matrix(1.1966054479467423,0,0,1.1966054479467423,-7.331988654638689,17.009000478066245)" fill="url(&quot;#SvgjsLinearGradient3821&quot;)"><path xmlns="http://www.w3.org/2000/svg" d="M65.532,53.661c2.473-2.341,2.081-5.645-0.869-7.341L59.1,43.118c-2.95-1.697-4.723-5.797-3.941-9.109l6.699-28.398  c0.781-3.312-0.602-4.108-3.073-1.767L24.467,36.339c-2.472,2.341-2.08,5.644,0.87,7.342l5.562,3.2  c2.949,1.698,4.724,5.798,3.943,9.109l-6.701,28.398c-0.78,3.312,0.602,4.107,3.074,1.767L65.532,53.661z" fill="url(&quot;#SvgjsLinearGradient3821&quot;)"></path></g><g id="SvgjsG3817" featurekey="0yvIkK-0" transform="matrix(2.3423802301213237,0,0,2.3423802301213237,91.40991707719733,37.538542358328)" fill="#004AAC"><path d="M9.8 23.42 c-0.62 0 -1.26 -0.08 -1.88 -0.2 c-1.18 -0.26 -2.26 -0.7 -3.24 -1.36 c-0.98 -0.64 -1.82 -1.48 -2.5 -2.48 c-0.68 -1.04 -1.14 -2.16 -1.36 -3.36 c-0.22 -1.24 -0.18 -2.46 0.1 -3.62 c0.26 -1.1 0.74 -2.16 1.44 -3.18 l0 -0.02 c0.72 -0.98 1.58 -1.8 2.58 -2.42 c1.04 -0.66 2.18 -1.08 3.44 -1.3 c0.6 -0.12 1.2 -0.16 1.8 -0.16 c0.62 0 1.26 0.06 1.86 0.18 c1.2 0.26 2.28 0.7 3.26 1.36 c1.02 0.68 1.86 1.52 2.5 2.48 c0.68 1.02 1.14 2.16 1.36 3.36 c0.26 1.5 0.08 3 -0.52 4.26 c-0.32 0.64 -0.74 1.2 -1.24 1.62 c-0.74 0.6 -1.54 0.9 -2.38 0.9 c-0.92 0 -1.84 -0.38 -2.3 -0.7 c-0.32 -0.22 -0.62 -0.5 -0.84 -0.78 c-0.24 0.14 -0.5 0.28 -0.8 0.38 c-0.46 0.18 -0.96 0.26 -1.46 0.26 c-1.18 0 -2.3 -0.44 -3.12 -1.26 c-0.84 -0.82 -1.32 -1.92 -1.32 -3.08 s0.48 -2.26 1.32 -3.08 c0.82 -0.82 1.94 -1.26 3.12 -1.26 c0.7 0 1.38 0.16 2 0.46 l2.46 0 l0.02 5.36 l0.02 0 l0 0.5 c0 0.18 0.34 0.64 0.78 0.64 c0.42 0 1.02 -0.38 1.4 -1.1 c0.36 -0.62 0.44 -1.58 0.24 -2.64 l0 -0.02 c-0.56 -3.04 -3.28 -5.26 -6.48 -5.26 c-0.4 0 -0.82 0.04 -1.22 0.1 c-1.78 0.32 -3.32 1.34 -4.36 2.8 c-0.98 1.42 -1.34 3.1 -1.04 4.74 c0.54 3.06 3.26 5.28 6.44 5.28 c0.42 0 0.84 -0.04 1.24 -0.12 c0.54 -0.08 1.08 -0.26 1.62 -0.48 l0.34 -0.34 l1.92 2.18 l-0.64 0.32 c-0.88 0.42 -1.8 0.7 -2.74 0.86 c-0.62 0.12 -1.22 0.18 -1.82 0.18 z M9.62 12.58 c-0.96 0 -1.78 0.78 -1.78 1.72 s0.8 1.72 1.78 1.72 c1 0 1.8 -0.78 1.8 -1.72 s-0.8 -1.72 -1.8 -1.72 z M27.36 20 l-2.4 0 c-0.88 0 -1.7 -0.34 -2.3 -0.94 c-0.62 -0.62 -0.94 -1.42 -0.94 -2.3 l0 -3.8 l-1.28 0 l0 -2.06 l1.28 0 l0 -3.6 l2.38 0 l0 3.6 l2.66 0 l0 2.06 l-2.66 0 l0 3.76 c0 0.5 0.44 0.96 0.88 0.96 l1.74 0 z M37.72 20 l-2.52 0 l0 -4.9 c0 -1.08 -0.86 -1.92 -1.94 -1.92 c-1.04 0 -1.94 0.86 -1.94 1.92 l0 4.9 l-2.5 0 l0 -14.68 l2.5 0 l0 6.18 c0.62 -0.62 1.28 -0.84 1.94 -0.84 c1.2 0 2.32 0.46 3.16 1.28 c0.84 0.86 1.3 1.98 1.3 3.16 l0 4.9 z M45.82000000000001 20 l-2.4 0 c-0.88 0 -1.7 -0.34 -2.3 -0.94 c-0.62 -0.62 -0.94 -1.42 -0.94 -2.3 l0 -3.8 l-1.28 0 l0 -2.06 l1.28 0 l0 -3.6 l2.38 0 l0 3.6 l2.66 0 l0 2.06 l-2.66 0 l0 3.76 c0 0.5 0.44 0.96 0.88 0.96 l1.74 0 z M56.160000000000004 20 l-2.52 0 l0 -4.9 c0 -1.08 -0.86 -1.92 -1.94 -1.92 c-1.04 0 -1.94 0.86 -1.94 1.92 l0 4.9 l-2.5 0 l0 -9.16 l2.5 0 l0 0.66 c0.62 -0.62 1.28 -0.84 1.94 -0.84 c1.2 0 2.32 0.46 3.16 1.28 c0.84 0.86 1.3 1.98 1.3 3.16 l0 4.9 z M59.34 20.2 c-0.88 0 -1.58 -0.7 -1.58 -1.56 c0 -0.42 0.16 -0.82 0.46 -1.1 c0.3 -0.3 0.7 -0.46 1.12 -0.46 c0.86 0 1.56 0.7 1.56 1.56 s-0.7 1.56 -1.56 1.56 z M65.98 20 l-2.7 0 l0 -10.46 l-1.04 0.78 l-1.58 -2.14 l3.24 -2.42 l2.08 0 l0 14.24 z M72.86 20.16 c-1.3 0 -2.5 -0.48 -3.42 -1.38 s-1.42 -2.1 -1.42 -3.4 c0 -0.78 0.22 -1.6 0.6 -2.34 l0.02 0 l4.4 -7.3 l3.14 0 l-2.92 4.84 c2.46 0.2 4.42 2.28 4.42 4.8 c0 1.3 -0.5 2.5 -1.42 3.4 c-0.9 0.9 -2.1 1.38 -3.4 1.38 z M72.86 13.2 c-1.18 0 -2.16 0.98 -2.16 2.18 c0 1.18 1 2.2 2.16 2.2 s2.14 -1.02 2.14 -2.2 c0 -1.2 -0.96 -2.18 -2.14 -2.18 z M83.22000000000001 20 l-2.7 0 l0 -10.46 l-1.04 0.78 l-1.58 -2.14 l3.24 -2.42 l2.08 0 l0 14.24 z M90.46000000000001 20 l-2.7 0 l0 -10.46 l-1.04 0.78 l-1.58 -2.14 l3.24 -2.42 l2.08 0 l0 14.24 z M94.32000000000001 20.2 c-0.88 0 -1.58 -0.7 -1.58 -1.56 c0 -0.42 0.16 -0.82 0.46 -1.1 c0.3 -0.3 0.7 -0.46 1.12 -0.46 c0.86 0 1.56 0.7 1.56 1.56 s-0.7 1.56 -1.56 1.56 z M102 20.18 c-1.26 0 -2.46 -0.48 -3.38 -1.38 c-0.9 -0.92 -1.4 -2.12 -1.4 -3.38 s0.5 -2.46 1.4 -3.38 c0.9 -0.9 2.1 -1.38 3.38 -1.38 c0.84 0 1.6 0.3 2.26 0.9 l0.1 0.08 l0 -6.32 l2.42 0 l0 14.68 l-2.42 0 l0 -0.72 l-0.1 0.1 c-0.72 0.7 -1.54 0.8 -2.26 0.8 z M102 13 c-1.28 0 -2.36 1.12 -2.36 2.42 c0 1.32 1.08 2.42 2.36 2.42 s2.36 -1.1 2.36 -2.42 c0 -1.3 -1.08 -2.42 -2.36 -2.42 z M112.98 20.22 l-0.02 0 c-0.58 0 -1.18 -0.14 -1.74 -0.4 c-0.52 -0.22 -1 -0.58 -1.44 -1.04 c-0.7 -0.76 -1.12 -1.76 -1.22 -2.8 c-0.02 -0.18 -0.04 -0.36 -0.04 -0.56 c0 -0.4 0.06 -0.82 0.16 -1.24 c0.18 -0.8 0.56 -1.54 1.1 -2.1 c0.4 -0.44 0.86 -0.78 1.44 -1.06 c0.54 -0.26 1.14 -0.38 1.76 -0.38 c0.64 0 1.22 0.12 1.76 0.38 c0.6 0.28 1.08 0.64 1.44 1.06 c0.52 0.56 0.92 1.28 1.12 2.1 c0.1 0.38 0.14 0.78 0.14 1.24 l0 0.46 l-6.72 0 l0.02 0.14 c0.26 1.24 1.2 2.14 2.24 2.14 l0.02 0 c0.58 -0.04 1.22 -0.4 1.6 -0.72 l0.22 -0.18 l1.66 1.44 l-0.3 0.26 c-0.22 0.2 -0.5 0.44 -0.8 0.6 l-0.02 0 c-0.72 0.42 -1.5 0.64 -2.38 0.66 z M112.98 12.719999999999999 c-0.78 0 -1.56 0.54 -1.98 1.38 l-0.08 0.16 l4.14 0 l-0.08 -0.16 c-0.46 -0.86 -1.22 -1.38 -2 -1.38 z M123.74000000000001 20 l-2.2 0 l-3.72 -9.16 l2.58 0 l2.24 5.48 l2.22 -5.48 l2.6 0 z" fill="#004AAC"></path></g></svg>