<svg xmlns:xlink="http://www.w3.org/1999/xlink" xmlns="http://www.w3.org/2000/svg" width="754.680029296875" height="207.47398216881052" viewBox="0 0 369.969696969697 101.71076924296848" class="looka-1j8o68f"><defs id="SvgjsDefs5406"><linearGradient id="SvgjsLinearGradient5411"><stop id="SvgjsStop5412" stop-color="#fbb040" offset="0"></stop><stop id="SvgjsStop5413" stop-color="#f9ed32" offset="1"></stop></linearGradient><linearGradient id="SvgjsLinearGradient5411"><stop id="SvgjsStop5412" stop-color="#fbb040" offset="0"></stop><stop id="SvgjsStop5413" stop-color="#f9ed32" offset="1"></stop></linearGradient><linearGradient id="SvgjsLinearGradient5411"><stop id="SvgjsStop5412" stop-color="#fbb040" offset="0"></stop><stop id="SvgjsStop5413" stop-color="#f9ed32" offset="1"></stop></linearGradient><linearGradient id="SvgjsLinearGradient5411"><stop id="SvgjsStop5412" stop-color="#fbb040" offset="0"></stop><stop id="SvgjsStop5413" stop-color="#f9ed32" offset="1"></stop></linearGradient><linearGradient id="SvgjsLinearGradient5411"><stop id="SvgjsStop5412" stop-color="#fbb040" offset="0"></stop><stop id="SvgjsStop5413" stop-color="#f9ed32" offset="1"></stop></linearGradient></defs><g id="SvgjsG5407" featurekey="5TMTKC-0" transform="matrix(1.1966054479467423,0,0,1.1966054479467423,-27.33198865463869,-2.990999521933754)" fill="url(&quot;#SvgjsLinearGradient5411&quot;)"><path xmlns="http://www.w3.org/2000/svg" d="M65.532,53.661c2.473-2.341,2.081-5.645-0.869-7.341L59.1,43.118c-2.95-1.697-4.723-5.797-3.941-9.109l6.699-28.398  c0.781-3.312-0.602-4.108-3.073-1.767L24.467,36.339c-2.472,2.341-2.08,5.644,0.87,7.342l5.562,3.2  c2.949,1.698,4.724,5.798,3.943,9.109l-6.701,28.398c-0.78,3.312,0.602,4.107,3.074,1.767L65.532,53.661z" fill="url(&quot;#SvgjsLinearGradient5411&quot;)"></path></g><g id="SvgjsG5408" featurekey="7UBp9i-0" transform="matrix(2.446611344730207,0,0,2.446611344730207,71.62989778694731,17.63528024177481)" fill="#FFFFFF"><path d="M7.94 21.5 c-4.24 0 -7.38 -2.96 -7.38 -7.02 c0 -3.88 2.88 -7.22 7.38 -7.22 c4.18 0 6.94 2.82 6.94 6.48 c0 2.82 -1.5 4.32 -3.48 4.32 c-0.84 0 -1.56 -0.26 -1.92 -0.76 c-0.54 0.58 -1.28 0.92 -2.22 0.92 c-1.96 0 -3.6 -1.54 -3.6 -3.64 s1.64 -3.68 3.6 -3.68 c0.98 0 1.68 0.48 1.86 0.64 l0 -0.58 l2.24 0 l0 4.92 c0 0.38 0.22 0.52 0.48 0.52 c0.64 -0.02 1.32 -0.74 1.32 -2.64 c0 -2.78 -2 -4.92 -5.24 -4.92 c-3.56 0 -5.56 2.66 -5.56 5.62 c0 3.32 2.38 5.4 5.66 5.4 c1.32 0 2.6 -0.3 3.78 -0.98 l0.76 1.42 c-1.24 0.82 -3.02 1.2 -4.62 1.2 z M9.12 14.58 c0 -0.9 -0.72 -1.64 -1.66 -1.64 c-0.86 0 -1.56 0.74 -1.56 1.64 c0 0.92 0.7 1.64 1.56 1.64 c0.94 0 1.66 -0.72 1.66 -1.64 z M20.1 9.74 l2.52 0 l0 2.48 l-2.52 0 l0 4.12 c0 0.92 0.42 1.28 1.36 1.28 l1.16 0 l0 2.38 l-1.36 0 c-2.72 0 -3.94 -1.22 -3.94 -3.52 l0 -4.26 l-1.48 0 l0 -2.48 l1.48 0 l0 -2.64 l2.78 0 l0 2.64 z M26.44 6.300000000000001 l0 4.48 c0.4 -0.52 1.5 -1.22 2.94 -1.22 c2.4 0 3.96 1.66 3.96 4.14 l0 6.3 l-2.76 0 l0 -5.82 c0 -1.22 -0.7 -2.06 -1.88 -2.06 c-1.36 0 -2.26 0.86 -2.26 2.28 l0 5.6 l-2.78 0 l0 -13.7 l2.78 0 z M38.56 9.74 l2.52 0 l0 2.48 l-2.52 0 l0 4.12 c0 0.92 0.42 1.28 1.36 1.28 l1.16 0 l0 2.38 l-1.36 0 c-2.72 0 -3.94 -1.22 -3.94 -3.52 l0 -4.26 l-1.48 0 l0 -2.48 l1.48 0 l0 -2.64 l2.78 0 l0 2.64 z M44.86 9.74 l0 1.04 c0.5 -0.58 1.56 -1.22 2.98 -1.22 c2.4 0 3.96 1.66 3.96 4.14 l0 6.3 l-2.76 0 l0 -5.82 c0 -1.22 -0.7 -2.06 -1.88 -2.06 c-1.36 0 -2.26 0.86 -2.26 2.28 l0 5.6 l-2.78 0 l0 -10.26 l2.74 0 z M55.8 20 l-2.88 0 l0 -2.9 l2.88 0 l0 2.9 z M61.540000000000006 20 l-3.04 0 l0 -10.9 l-1.6 0 l0 -2.8 l4.64 0 l0 13.7 z M67.86 20.22 c-3.08 0 -5.16 -2.14 -5.16 -5.06 c0 -1.2 0.34 -2.28 0.92 -3.32 l3.14 -5.56 l3.1 0 l-2.42 4.2 c0.26 -0.06 0.52 -0.08 0.84 -0.08 c2.74 0 4.74 2.06 4.74 4.8 c0 2.7 -2.06 5.02 -5.16 5.02 z M67.86 17.66 c1.38 0 2.4 -1.04 2.4 -2.4 s-1.02 -2.38 -2.4 -2.38 s-2.4 1.02 -2.4 2.38 s1.02 2.4 2.4 2.4 z M77.58 20 l-3.04 0 l0 -10.9 l-1.6 0 l0 -2.8 l4.64 0 l0 13.7 z M83.38 20 l-3.04 0 l0 -10.9 l-1.6 0 l0 -2.8 l4.64 0 l0 13.7 z M87.46 20 l-2.88 0 l0 -2.9 l2.88 0 l0 2.9 z M93.83999999999999 17.68 c1.6 0 2.8 -1.22 2.8 -2.76 c0 -1.52 -1.24 -2.76 -2.8 -2.76 c-1.52 0 -2.7 1.24 -2.7 2.76 c0 1.54 1.18 2.76 2.7 2.76 z M96.6 20 l0 -0.76 c-0.72 0.56 -1.84 0.9 -3 0.9 c-2.8 0 -5.18 -2.26 -5.18 -5.22 s2.38 -5.28 5.18 -5.28 c1.16 0 2.28 0.36 3 0.92 l0 -4.26 l2.78 0 l0 13.7 l-2.78 0 z M110.58 17.8 c-1 1.5 -2.58 2.44 -4.86 2.44 c-3.28 0 -5.4 -2.3 -5.4 -5.34 c0 -2.96 2.2 -5.36 5.42 -5.36 c3.24 0 5.2 2.24 5.2 5.22 c0 0.4 -0.04 0.92 -0.04 0.98 l-7.84 0 c0.3 1.3 1.28 2.14 2.72 2.14 c1.24 0 2.14 -0.54 2.72 -1.36 z M105.72 11.82 c-1.3 0 -2.2 0.7 -2.56 1.86 l4.98 0 c-0.3 -1.24 -1.3 -1.86 -2.42 -1.86 z M118.60000000000001 20 l-3.72 0 l-3.34 -10.26 l3.04 0 l2.22 7.62 l2.2 -7.62 l2.94 0 z" fill="#FFFFFF"></path></g></svg>